<mxfile host="app.diagrams.net" agent="Mozilla/5.0 (X11; Linux x86_64) AppleWebKit/537.36 (KHTML, like Gecko) Chrome/132.0.0.0 Safari/537.36" version="26.0.11">
  <diagram name="Page-1" id="ynTKS2v_TZv17swCPKiS">
    <mxGraphModel dx="2170" dy="2361" grid="1" gridSize="10" guides="1" tooltips="1" connect="1" arrows="1" fold="1" page="1" pageScale="1" pageWidth="827" pageHeight="1169" math="0" shadow="0">
      <root>
        <mxCell id="0" />
        <mxCell id="1" parent="0" />
        <mxCell id="YddtfjUMXEQ7EH6GwOLm-83" value="" style="rounded=1;whiteSpace=wrap;html=1;fillColor=#EEEEEE;strokeColor=none;opacity=50;" parent="1" vertex="1">
          <mxGeometry x="648" y="380" width="220" height="340" as="geometry" />
        </mxCell>
        <mxCell id="ltitkqDnKHNBnyyiyaz9-99" value="" style="rounded=1;whiteSpace=wrap;html=1;fillColor=#EEEEEE;strokeColor=none;opacity=50;" parent="1" vertex="1">
          <mxGeometry x="628" y="160.51" width="260" height="180" as="geometry" />
        </mxCell>
        <mxCell id="ltitkqDnKHNBnyyiyaz9-87" value="" style="rounded=1;whiteSpace=wrap;html=1;strokeColor=none;fillColor=#EEEEEE;fontStyle=1;opacity=50;" parent="1" vertex="1">
          <mxGeometry x="-540" y="400" width="920" height="440" as="geometry" />
        </mxCell>
        <mxCell id="ltitkqDnKHNBnyyiyaz9-67" value="" style="rounded=1;whiteSpace=wrap;html=1;strokeColor=none;fillColor=#EEEEEE;fontStyle=1;opacity=50;" parent="1" vertex="1">
          <mxGeometry x="-608" y="-315.87" width="1188" height="635.87" as="geometry" />
        </mxCell>
        <mxCell id="YddtfjUMXEQ7EH6GwOLm-15" style="edgeStyle=orthogonalEdgeStyle;shape=connector;rounded=1;orthogonalLoop=1;jettySize=auto;html=1;exitX=0.5;exitY=1;exitDx=0;exitDy=0;entryX=0.5;entryY=0;entryDx=0;entryDy=0;strokeColor=default;align=center;verticalAlign=middle;fontFamily=Helvetica;fontSize=11;fontColor=default;labelBackgroundColor=default;endArrow=classic;" parent="1" source="ltitkqDnKHNBnyyiyaz9-5" target="ltitkqDnKHNBnyyiyaz9-29" edge="1">
          <mxGeometry relative="1" as="geometry" />
        </mxCell>
        <mxCell id="ltitkqDnKHNBnyyiyaz9-5" value="&lt;font style=&quot;font-size: 18px;&quot;&gt;PrimaryPatient&lt;/font&gt;" style="rounded=1;whiteSpace=wrap;html=1;fillColor=#68A9D4;" parent="1" vertex="1">
          <mxGeometry x="-471.25" y="450" width="180" height="40" as="geometry" />
        </mxCell>
        <mxCell id="ltitkqDnKHNBnyyiyaz9-10" value="&lt;span style=&quot;font-size: 14px;&quot;&gt;patient_arrivals_generator_primary()&lt;/span&gt;" style="rounded=1;whiteSpace=wrap;html=1;fillColor=#F2A25C;" parent="1" vertex="1">
          <mxGeometry x="-276.3" y="488" width="244.62" height="30" as="geometry" />
        </mxCell>
        <mxCell id="ltitkqDnKHNBnyyiyaz9-12" value="Creates patient and starts pathway process (service())" style="text;html=1;align=center;verticalAlign=middle;whiteSpace=wrap;rounded=1;" parent="1" vertex="1">
          <mxGeometry x="-244" y="560" width="180" height="40" as="geometry" />
        </mxCell>
        <mxCell id="ltitkqDnKHNBnyyiyaz9-13" value="&lt;span style=&quot;font-size: 14px;&quot;&gt;service()&lt;/span&gt;" style="rounded=1;whiteSpace=wrap;html=1;fillColor=#F2A25C;" parent="1" vertex="1">
          <mxGeometry x="-268" y="740" width="130" height="30" as="geometry" />
        </mxCell>
        <mxCell id="ltitkqDnKHNBnyyiyaz9-14" value="Samples and passes time to next patient arrival" style="text;html=1;align=center;verticalAlign=middle;whiteSpace=wrap;rounded=1;" parent="1" vertex="1">
          <mxGeometry x="-244" y="643.5" width="180" height="40" as="geometry" />
        </mxCell>
        <mxCell id="ltitkqDnKHNBnyyiyaz9-17" value="" style="curved=1;endArrow=classic;html=1;rounded=1;" parent="1" edge="1">
          <mxGeometry width="50" height="50" relative="1" as="geometry">
            <mxPoint x="-168" y="640" as="sourcePoint" />
            <mxPoint x="-158" y="600" as="targetPoint" />
            <Array as="points">
              <mxPoint x="-178" y="630" />
              <mxPoint x="-178" y="610" />
            </Array>
          </mxGeometry>
        </mxCell>
        <mxCell id="ltitkqDnKHNBnyyiyaz9-18" value="&lt;div&gt;&lt;br&gt;&lt;/div&gt;&lt;div&gt;&lt;br&gt;&lt;/div&gt;" style="shape=umlActor;verticalLabelPosition=bottom;verticalAlign=top;html=1;outlineConnect=0;rounded=1;" parent="1" vertex="1">
          <mxGeometry x="-300" y="580" width="30" height="60" as="geometry" />
        </mxCell>
        <mxCell id="ltitkqDnKHNBnyyiyaz9-21" value="&lt;div&gt;&lt;br&gt;&lt;/div&gt;&lt;div&gt;&lt;br&gt;&lt;/div&gt;" style="shape=umlActor;verticalLabelPosition=bottom;verticalAlign=top;html=1;outlineConnect=0;rounded=1;" parent="1" vertex="1">
          <mxGeometry x="-397.5" y="730" width="30" height="60" as="geometry" />
        </mxCell>
        <mxCell id="ltitkqDnKHNBnyyiyaz9-22" value="&lt;div&gt;Goes through process that a patient needing primary or revision hip or knee surgery will undergo&amp;nbsp;&lt;span style=&quot;background-color: transparent; color: light-dark(rgb(0, 0, 0), rgb(255, 255, 255));&quot;&gt;from scheduled admission for surgery to discharge&lt;/span&gt;&lt;/div&gt;" style="text;html=1;align=center;verticalAlign=middle;whiteSpace=wrap;rounded=1;" parent="1" vertex="1">
          <mxGeometry x="-337.5" y="774" width="297.5" height="40" as="geometry" />
        </mxCell>
        <mxCell id="6y7WzxSsARQUCHMQZpNs-54" style="edgeStyle=orthogonalEdgeStyle;shape=connector;curved=0;rounded=1;orthogonalLoop=1;jettySize=auto;html=1;exitX=0.5;exitY=1;exitDx=0;exitDy=0;entryX=0.5;entryY=0;entryDx=0;entryDy=0;strokeColor=default;align=center;verticalAlign=middle;fontFamily=Helvetica;fontSize=11;fontColor=default;labelBackgroundColor=default;endArrow=none;startFill=0;" edge="1" parent="1" source="ltitkqDnKHNBnyyiyaz9-29" target="6y7WzxSsARQUCHMQZpNs-51">
          <mxGeometry relative="1" as="geometry" />
        </mxCell>
        <mxCell id="ltitkqDnKHNBnyyiyaz9-29" value="&lt;font style=&quot;font-size: 14px;&quot;&gt;new_primary_patient&lt;/font&gt;" style="rounded=1;whiteSpace=wrap;html=1;fillColor=#A9E4F5;" parent="1" vertex="1">
          <mxGeometry x="-450" y="574.5" width="137.5" height="30" as="geometry" />
        </mxCell>
        <mxCell id="ltitkqDnKHNBnyyiyaz9-41" value="Key:" style="text;html=1;align=center;verticalAlign=middle;whiteSpace=wrap;rounded=1;fontStyle=1;" parent="1" vertex="1">
          <mxGeometry x="735.5" y="-160" width="45" height="25" as="geometry" />
        </mxCell>
        <mxCell id="ltitkqDnKHNBnyyiyaz9-42" value="Results" style="rounded=1;whiteSpace=wrap;html=1;fillColor=#D3F1E2;" parent="1" vertex="1">
          <mxGeometry x="690.5" y="-9" width="135" height="30" as="geometry" />
        </mxCell>
        <mxCell id="ltitkqDnKHNBnyyiyaz9-43" value="Functions or methods" style="rounded=1;whiteSpace=wrap;html=1;fillColor=#F2A25C;" parent="1" vertex="1">
          <mxGeometry x="690.5" y="-47" width="135" height="30" as="geometry" />
        </mxCell>
        <mxCell id="ltitkqDnKHNBnyyiyaz9-44" value="Instance of class" style="rounded=1;whiteSpace=wrap;html=1;fillColor=#A9E4F5;" parent="1" vertex="1">
          <mxGeometry x="690.5" y="-86" width="135" height="30" as="geometry" />
        </mxCell>
        <mxCell id="ltitkqDnKHNBnyyiyaz9-45" value="Class" style="rounded=1;whiteSpace=wrap;html=1;fillColor=#68A9D4;" parent="1" vertex="1">
          <mxGeometry x="690.5" y="-124.5" width="135" height="30" as="geometry" />
        </mxCell>
        <mxCell id="ltitkqDnKHNBnyyiyaz9-72" value="" style="curved=1;endArrow=classic;html=1;rounded=1;" parent="1" edge="1">
          <mxGeometry width="50" height="50" relative="1" as="geometry">
            <mxPoint x="-143" y="603.5" as="sourcePoint" />
            <mxPoint x="-153" y="643.5" as="targetPoint" />
            <Array as="points">
              <mxPoint x="-133" y="613.5" />
              <mxPoint x="-133" y="633.5" />
            </Array>
          </mxGeometry>
        </mxCell>
        <mxCell id="ltitkqDnKHNBnyyiyaz9-82" value="" style="curved=1;endArrow=classic;html=1;rounded=1;dashed=1;" parent="1" edge="1">
          <mxGeometry width="50" height="50" relative="1" as="geometry">
            <mxPoint x="270" y="788.720909090909" as="sourcePoint" />
            <mxPoint x="450" y="580" as="targetPoint" />
            <Array as="points">
              <mxPoint x="430" y="780" />
              <mxPoint x="380" y="610" />
            </Array>
          </mxGeometry>
        </mxCell>
        <mxCell id="ltitkqDnKHNBnyyiyaz9-100" value="&lt;font style=&quot;font-size: 18px;&quot;&gt;Running the model&lt;/font&gt;" style="text;html=1;align=center;verticalAlign=middle;whiteSpace=wrap;rounded=1;fontStyle=1;" parent="1" vertex="1">
          <mxGeometry x="663" y="178.64" width="190" height="31" as="geometry" />
        </mxCell>
        <mxCell id="YddtfjUMXEQ7EH6GwOLm-66" style="edgeStyle=orthogonalEdgeStyle;shape=connector;rounded=1;orthogonalLoop=1;jettySize=auto;html=1;exitX=1;exitY=0.5;exitDx=0;exitDy=0;entryX=0;entryY=0.5;entryDx=0;entryDy=0;strokeColor=default;align=center;verticalAlign=middle;fontFamily=Helvetica;fontSize=11;fontColor=default;labelBackgroundColor=default;endArrow=classic;" parent="1" source="vqxNZKrtE7Uk3ozEDKWz-3" target="YddtfjUMXEQ7EH6GwOLm-5" edge="1">
          <mxGeometry relative="1" as="geometry" />
        </mxCell>
        <mxCell id="YddtfjUMXEQ7EH6GwOLm-68" style="edgeStyle=orthogonalEdgeStyle;shape=connector;rounded=1;orthogonalLoop=1;jettySize=auto;html=1;exitX=1;exitY=0.5;exitDx=0;exitDy=0;entryX=0;entryY=0.5;entryDx=0;entryDy=0;strokeColor=default;align=center;verticalAlign=middle;fontFamily=Helvetica;fontSize=11;fontColor=default;labelBackgroundColor=default;endArrow=classic;" parent="1" source="vqxNZKrtE7Uk3ozEDKWz-3" target="YddtfjUMXEQ7EH6GwOLm-6" edge="1">
          <mxGeometry relative="1" as="geometry" />
        </mxCell>
        <mxCell id="YddtfjUMXEQ7EH6GwOLm-69" style="edgeStyle=orthogonalEdgeStyle;shape=connector;rounded=1;orthogonalLoop=1;jettySize=auto;html=1;exitX=1;exitY=0.5;exitDx=0;exitDy=0;entryX=0;entryY=0.5;entryDx=0;entryDy=0;strokeColor=default;align=center;verticalAlign=middle;fontFamily=Helvetica;fontSize=11;fontColor=default;labelBackgroundColor=default;endArrow=classic;" parent="1" source="vqxNZKrtE7Uk3ozEDKWz-3" target="YddtfjUMXEQ7EH6GwOLm-8" edge="1">
          <mxGeometry relative="1" as="geometry" />
        </mxCell>
        <mxCell id="YddtfjUMXEQ7EH6GwOLm-75" style="edgeStyle=orthogonalEdgeStyle;shape=connector;rounded=1;orthogonalLoop=1;jettySize=auto;html=1;exitX=0.5;exitY=1;exitDx=0;exitDy=0;entryX=0.5;entryY=0;entryDx=0;entryDy=0;strokeColor=default;align=center;verticalAlign=middle;fontFamily=Helvetica;fontSize=11;fontColor=default;labelBackgroundColor=default;endArrow=classic;" parent="1" source="vqxNZKrtE7Uk3ozEDKWz-3" target="YddtfjUMXEQ7EH6GwOLm-74" edge="1">
          <mxGeometry relative="1" as="geometry" />
        </mxCell>
        <mxCell id="6y7WzxSsARQUCHMQZpNs-18" style="edgeStyle=orthogonalEdgeStyle;rounded=1;orthogonalLoop=1;jettySize=auto;html=1;exitX=1;exitY=0.5;exitDx=0;exitDy=0;entryX=0;entryY=0.5;entryDx=0;entryDy=0;curved=0;" edge="1" parent="1" source="vqxNZKrtE7Uk3ozEDKWz-3" target="YddtfjUMXEQ7EH6GwOLm-7">
          <mxGeometry relative="1" as="geometry" />
        </mxCell>
        <mxCell id="6y7WzxSsARQUCHMQZpNs-19" style="edgeStyle=orthogonalEdgeStyle;rounded=1;orthogonalLoop=1;jettySize=auto;html=1;exitX=1;exitY=0.5;exitDx=0;exitDy=0;entryX=0;entryY=0.5;entryDx=0;entryDy=0;curved=0;" edge="1" parent="1" source="vqxNZKrtE7Uk3ozEDKWz-3" target="6y7WzxSsARQUCHMQZpNs-16">
          <mxGeometry relative="1" as="geometry" />
        </mxCell>
        <mxCell id="6y7WzxSsARQUCHMQZpNs-20" style="edgeStyle=orthogonalEdgeStyle;shape=connector;curved=0;rounded=1;orthogonalLoop=1;jettySize=auto;html=1;exitX=1;exitY=0.5;exitDx=0;exitDy=0;entryX=0;entryY=0.5;entryDx=0;entryDy=0;strokeColor=default;align=center;verticalAlign=middle;fontFamily=Helvetica;fontSize=11;fontColor=default;labelBackgroundColor=default;endArrow=classic;" edge="1" parent="1" source="vqxNZKrtE7Uk3ozEDKWz-3" target="6y7WzxSsARQUCHMQZpNs-17">
          <mxGeometry relative="1" as="geometry" />
        </mxCell>
        <mxCell id="vqxNZKrtE7Uk3ozEDKWz-3" value="&lt;font style=&quot;font-size: 18px;&quot;&gt;Scenario&lt;/font&gt;" style="rounded=1;whiteSpace=wrap;html=1;fillColor=#68A9D4;" parent="1" vertex="1">
          <mxGeometry x="-456.5" y="3" width="113" height="40" as="geometry" />
        </mxCell>
        <mxCell id="6y7WzxSsARQUCHMQZpNs-64" style="edgeStyle=orthogonalEdgeStyle;shape=connector;curved=0;rounded=1;orthogonalLoop=1;jettySize=auto;html=1;exitX=0.5;exitY=1;exitDx=0;exitDy=0;entryX=0.5;entryY=0;entryDx=0;entryDy=0;strokeColor=default;align=center;verticalAlign=middle;fontFamily=Helvetica;fontSize=11;fontColor=default;labelBackgroundColor=default;endArrow=classic;" edge="1" parent="1" source="vqxNZKrtE7Uk3ozEDKWz-11" target="6y7WzxSsARQUCHMQZpNs-48">
          <mxGeometry relative="1" as="geometry" />
        </mxCell>
        <mxCell id="vqxNZKrtE7Uk3ozEDKWz-11" value="Gets results each day" style="text;html=1;align=center;verticalAlign=middle;whiteSpace=wrap;rounded=1;" parent="1" vertex="1">
          <mxGeometry x="42.5" y="521.5" width="130" height="20" as="geometry" />
        </mxCell>
        <mxCell id="vqxNZKrtE7Uk3ozEDKWz-13" value="&lt;font style=&quot;font-size: 18px;&quot;&gt;Set-up&lt;/font&gt;" style="text;html=1;align=center;verticalAlign=middle;whiteSpace=wrap;rounded=1;fontStyle=1;" parent="1" vertex="1">
          <mxGeometry x="-581.5" y="-300" width="90" height="31" as="geometry" />
        </mxCell>
        <mxCell id="vqxNZKrtE7Uk3ozEDKWz-14" value="&lt;font style=&quot;font-size: 18px;&quot;&gt;Simulation&lt;/font&gt;" style="text;html=1;align=center;verticalAlign=middle;whiteSpace=wrap;rounded=1;fontStyle=1;" parent="1" vertex="1">
          <mxGeometry x="-499.5" y="400" width="110" height="31" as="geometry" />
        </mxCell>
        <mxCell id="YddtfjUMXEQ7EH6GwOLm-4" style="edgeStyle=orthogonalEdgeStyle;shape=connector;rounded=1;orthogonalLoop=1;jettySize=auto;html=1;exitX=0.5;exitY=1;exitDx=0;exitDy=0;strokeColor=default;align=center;verticalAlign=middle;fontFamily=Helvetica;fontSize=11;fontColor=default;labelBackgroundColor=default;endArrow=classic;" parent="1" source="YddtfjUMXEQ7EH6GwOLm-1" target="vqxNZKrtE7Uk3ozEDKWz-3" edge="1">
          <mxGeometry relative="1" as="geometry" />
        </mxCell>
        <mxCell id="YddtfjUMXEQ7EH6GwOLm-1" value="Default parameters defined as globals in script" style="text;html=1;align=center;verticalAlign=middle;whiteSpace=wrap;rounded=1;" parent="1" vertex="1">
          <mxGeometry x="-487.25" y="-91.87" width="200" height="40" as="geometry" />
        </mxCell>
        <mxCell id="YddtfjUMXEQ7EH6GwOLm-2" value="&lt;font style=&quot;font-size: 14px;&quot;&gt;trace()&lt;/font&gt;" style="rounded=1;whiteSpace=wrap;html=1;fillColor=#F2A25C;" parent="1" vertex="1">
          <mxGeometry x="247.25" y="433.25" width="90" height="30" as="geometry" />
        </mxCell>
        <mxCell id="YddtfjUMXEQ7EH6GwOLm-5" value="&lt;span style=&quot;font-size: 14px;&quot;&gt;set_random_no_set()&lt;/span&gt;" style="rounded=1;whiteSpace=wrap;html=1;fillColor=#F2A25C;" parent="1" vertex="1">
          <mxGeometry x="-250" y="-86" width="145" height="30" as="geometry" />
        </mxCell>
        <mxCell id="YddtfjUMXEQ7EH6GwOLm-6" value="&lt;span style=&quot;font-size: 14px;&quot;&gt;number_slots()&lt;/span&gt;" style="rounded=1;whiteSpace=wrap;html=1;fillColor=#F2A25C;" parent="1" vertex="1">
          <mxGeometry x="-252.5" y="-5.5" width="150" height="30" as="geometry" />
        </mxCell>
        <mxCell id="YddtfjUMXEQ7EH6GwOLm-7" value="&lt;span style=&quot;font-size: 14px;&quot;&gt;init_sampling()&lt;/span&gt;" style="rounded=1;whiteSpace=wrap;html=1;fillColor=#F2A25C;" parent="1" vertex="1">
          <mxGeometry x="-252.5" y="-45.5" width="150" height="30" as="geometry" />
        </mxCell>
        <mxCell id="YddtfjUMXEQ7EH6GwOLm-8" value="&lt;span style=&quot;font-size: 14px;&quot;&gt;primary_types()&lt;/span&gt;" style="rounded=1;whiteSpace=wrap;html=1;fillColor=#F2A25C;" parent="1" vertex="1">
          <mxGeometry x="-252.5" y="34.5" width="150" height="30" as="geometry" />
        </mxCell>
        <mxCell id="YddtfjUMXEQ7EH6GwOLm-13" style="edgeStyle=orthogonalEdgeStyle;shape=connector;rounded=1;orthogonalLoop=1;jettySize=auto;html=1;exitX=0.5;exitY=1;exitDx=0;exitDy=0;strokeColor=default;align=center;verticalAlign=middle;fontFamily=Helvetica;fontSize=11;fontColor=default;labelBackgroundColor=default;endArrow=classic;" parent="1" source="YddtfjUMXEQ7EH6GwOLm-10" target="ltitkqDnKHNBnyyiyaz9-29" edge="1">
          <mxGeometry relative="1" as="geometry" />
        </mxCell>
        <mxCell id="YddtfjUMXEQ7EH6GwOLm-10" value="&lt;font style=&quot;font-size: 18px;&quot;&gt;RevisionPatient&lt;/font&gt;" style="rounded=1;whiteSpace=wrap;html=1;fillColor=#68A9D4;" parent="1" vertex="1">
          <mxGeometry x="-471.25" y="501.5" width="180" height="40" as="geometry" />
        </mxCell>
        <mxCell id="YddtfjUMXEQ7EH6GwOLm-72" style="edgeStyle=orthogonalEdgeStyle;shape=connector;rounded=1;orthogonalLoop=1;jettySize=auto;html=1;exitX=0.5;exitY=1;exitDx=0;exitDy=0;entryX=0.5;entryY=0;entryDx=0;entryDy=0;strokeColor=default;align=center;verticalAlign=middle;fontFamily=Helvetica;fontSize=11;fontColor=default;labelBackgroundColor=default;endArrow=classic;" parent="1" source="YddtfjUMXEQ7EH6GwOLm-28" target="YddtfjUMXEQ7EH6GwOLm-71" edge="1">
          <mxGeometry relative="1" as="geometry" />
        </mxCell>
        <mxCell id="YddtfjUMXEQ7EH6GwOLm-28" value="&lt;font style=&quot;font-size: 18px;&quot;&gt;Summary&lt;/font&gt;" style="rounded=1;whiteSpace=wrap;html=1;fillColor=#68A9D4;" parent="1" vertex="1">
          <mxGeometry x="697.25" y="428.25" width="124.5" height="40" as="geometry" />
        </mxCell>
        <mxCell id="YddtfjUMXEQ7EH6GwOLm-29" value="&lt;span style=&quot;font-size: 14px;&quot;&gt;process_run_results()&lt;/span&gt;" style="rounded=1;whiteSpace=wrap;html=1;fillColor=#F2A25C;" parent="1" vertex="1">
          <mxGeometry x="668" y="558" width="180" height="30" as="geometry" />
        </mxCell>
        <mxCell id="YddtfjUMXEQ7EH6GwOLm-30" value="&lt;span style=&quot;font-size: 14px;&quot;&gt;single_run()&lt;/span&gt;" style="rounded=1;whiteSpace=wrap;html=1;fillColor=#F2A25C;" parent="1" vertex="1">
          <mxGeometry x="691.5" y="234.26" width="133" height="30" as="geometry" />
        </mxCell>
        <mxCell id="YddtfjUMXEQ7EH6GwOLm-31" value="&lt;span style=&quot;font-size: 14px;&quot;&gt;multiple_reps()&lt;/span&gt;" style="rounded=1;whiteSpace=wrap;html=1;fillColor=#F2A25C;" parent="1" vertex="1">
          <mxGeometry x="691.5" y="280.51" width="133" height="30" as="geometry" />
        </mxCell>
        <mxCell id="YddtfjUMXEQ7EH6GwOLm-50" style="edgeStyle=orthogonalEdgeStyle;rounded=1;orthogonalLoop=1;jettySize=auto;html=1;exitX=1;exitY=0.5;exitDx=0;exitDy=0;entryX=1;entryY=0.5;entryDx=0;entryDy=0;" parent="1" source="YddtfjUMXEQ7EH6GwOLm-52" target="YddtfjUMXEQ7EH6GwOLm-53" edge="1">
          <mxGeometry relative="1" as="geometry" />
        </mxCell>
        <mxCell id="YddtfjUMXEQ7EH6GwOLm-52" value="&lt;font style=&quot;font-size: 18px;&quot;&gt;Bernoulli&lt;/font&gt;" style="rounded=1;whiteSpace=wrap;html=1;fillColor=#68A9D4;" parent="1" vertex="1">
          <mxGeometry x="382" y="-107.87" width="120" height="40" as="geometry" />
        </mxCell>
        <mxCell id="YddtfjUMXEQ7EH6GwOLm-53" value="&lt;font style=&quot;font-size: 14px;&quot;&gt;los_delay&lt;/font&gt;" style="rounded=1;whiteSpace=wrap;html=1;fillColor=#A9E4F5;" parent="1" vertex="1">
          <mxGeometry x="413" y="-51.87" width="115" height="30" as="geometry" />
        </mxCell>
        <mxCell id="YddtfjUMXEQ7EH6GwOLm-58" style="edgeStyle=orthogonalEdgeStyle;rounded=1;orthogonalLoop=1;jettySize=auto;html=1;exitX=1;exitY=0.5;exitDx=0;exitDy=0;entryX=1;entryY=0.5;entryDx=0;entryDy=0;" parent="1" source="YddtfjUMXEQ7EH6GwOLm-61" target="YddtfjUMXEQ7EH6GwOLm-62" edge="1">
          <mxGeometry relative="1" as="geometry" />
        </mxCell>
        <mxCell id="YddtfjUMXEQ7EH6GwOLm-59" style="edgeStyle=orthogonalEdgeStyle;rounded=1;orthogonalLoop=1;jettySize=auto;html=1;exitX=1;exitY=0.5;exitDx=0;exitDy=0;entryX=1;entryY=0.5;entryDx=0;entryDy=0;" parent="1" source="YddtfjUMXEQ7EH6GwOLm-61" target="YddtfjUMXEQ7EH6GwOLm-63" edge="1">
          <mxGeometry relative="1" as="geometry" />
        </mxCell>
        <mxCell id="YddtfjUMXEQ7EH6GwOLm-60" style="edgeStyle=orthogonalEdgeStyle;shape=connector;rounded=1;orthogonalLoop=1;jettySize=auto;html=1;exitX=1;exitY=0.5;exitDx=0;exitDy=0;entryX=1;entryY=0.5;entryDx=0;entryDy=0;strokeColor=default;align=center;verticalAlign=middle;fontFamily=Helvetica;fontSize=11;fontColor=default;labelBackgroundColor=default;endArrow=classic;" parent="1" source="YddtfjUMXEQ7EH6GwOLm-61" target="YddtfjUMXEQ7EH6GwOLm-64" edge="1">
          <mxGeometry relative="1" as="geometry" />
        </mxCell>
        <mxCell id="6y7WzxSsARQUCHMQZpNs-3" style="edgeStyle=orthogonalEdgeStyle;rounded=1;orthogonalLoop=1;jettySize=auto;html=1;exitX=1;exitY=0.5;exitDx=0;exitDy=0;entryX=1;entryY=0.5;entryDx=0;entryDy=0;" edge="1" parent="1" source="YddtfjUMXEQ7EH6GwOLm-61" target="6y7WzxSsARQUCHMQZpNs-1">
          <mxGeometry relative="1" as="geometry" />
        </mxCell>
        <mxCell id="6y7WzxSsARQUCHMQZpNs-4" style="edgeStyle=orthogonalEdgeStyle;rounded=1;orthogonalLoop=1;jettySize=auto;html=1;exitX=1;exitY=0.5;exitDx=0;exitDy=0;entryX=1;entryY=0.5;entryDx=0;entryDy=0;" edge="1" parent="1" source="YddtfjUMXEQ7EH6GwOLm-61" target="6y7WzxSsARQUCHMQZpNs-2">
          <mxGeometry relative="1" as="geometry" />
        </mxCell>
        <mxCell id="YddtfjUMXEQ7EH6GwOLm-61" value="&lt;font style=&quot;font-size: 18px;&quot;&gt;LogNormal&lt;/font&gt;" style="rounded=1;whiteSpace=wrap;html=1;fillColor=#68A9D4;" parent="1" vertex="1">
          <mxGeometry x="-40" y="-107.87" width="120" height="40" as="geometry" />
        </mxCell>
        <mxCell id="YddtfjUMXEQ7EH6GwOLm-62" value="&lt;font style=&quot;font-size: 14px;&quot;&gt;primary_hip_dist&lt;/font&gt;" style="rounded=1;whiteSpace=wrap;html=1;fillColor=#A9E4F5;" parent="1" vertex="1">
          <mxGeometry x="-20" y="-51.87" width="126" height="30" as="geometry" />
        </mxCell>
        <mxCell id="YddtfjUMXEQ7EH6GwOLm-63" value="&lt;font style=&quot;font-size: 14px;&quot;&gt;primary_knee_dist&lt;/font&gt;" style="rounded=1;whiteSpace=wrap;html=1;fillColor=#A9E4F5;" parent="1" vertex="1">
          <mxGeometry x="-20" y="-11.87" width="126" height="30" as="geometry" />
        </mxCell>
        <mxCell id="YddtfjUMXEQ7EH6GwOLm-64" value="&lt;font style=&quot;font-size: 14px;&quot;&gt;revision_hip_dist&lt;/font&gt;" style="rounded=1;whiteSpace=wrap;html=1;fillColor=#A9E4F5;" parent="1" vertex="1">
          <mxGeometry x="-20" y="28.130000000000003" width="126" height="30" as="geometry" />
        </mxCell>
        <mxCell id="YddtfjUMXEQ7EH6GwOLm-73" style="edgeStyle=orthogonalEdgeStyle;shape=connector;rounded=1;orthogonalLoop=1;jettySize=auto;html=1;exitX=0.5;exitY=1;exitDx=0;exitDy=0;entryX=0.5;entryY=0;entryDx=0;entryDy=0;strokeColor=default;align=center;verticalAlign=middle;fontFamily=Helvetica;fontSize=11;fontColor=default;labelBackgroundColor=default;endArrow=classic;" parent="1" source="YddtfjUMXEQ7EH6GwOLm-71" target="YddtfjUMXEQ7EH6GwOLm-29" edge="1">
          <mxGeometry relative="1" as="geometry" />
        </mxCell>
        <mxCell id="YddtfjUMXEQ7EH6GwOLm-71" value="&lt;font style=&quot;font-size: 14px;&quot;&gt;summary&lt;/font&gt;" style="rounded=1;whiteSpace=wrap;html=1;fillColor=#A9E4F5;" parent="1" vertex="1">
          <mxGeometry x="722" y="498.25" width="72" height="30" as="geometry" />
        </mxCell>
        <mxCell id="6y7WzxSsARQUCHMQZpNs-27" style="edgeStyle=orthogonalEdgeStyle;shape=connector;curved=0;rounded=1;orthogonalLoop=1;jettySize=auto;html=1;exitX=0.5;exitY=1;exitDx=0;exitDy=0;strokeColor=default;align=center;verticalAlign=middle;fontFamily=Helvetica;fontSize=11;fontColor=default;labelBackgroundColor=default;endArrow=classic;" edge="1" parent="1" source="YddtfjUMXEQ7EH6GwOLm-74" target="6y7WzxSsARQUCHMQZpNs-22">
          <mxGeometry relative="1" as="geometry">
            <Array as="points">
              <mxPoint x="-400" y="170" />
              <mxPoint x="-243" y="170" />
            </Array>
          </mxGeometry>
        </mxCell>
        <mxCell id="YddtfjUMXEQ7EH6GwOLm-74" value="&lt;font style=&quot;font-size: 14px;&quot;&gt;args&lt;/font&gt;" style="rounded=1;whiteSpace=wrap;html=1;fillColor=#A9E4F5;" parent="1" vertex="1">
          <mxGeometry x="-433" y="73" width="66" height="30" as="geometry" />
        </mxCell>
        <mxCell id="YddtfjUMXEQ7EH6GwOLm-79" style="edgeStyle=orthogonalEdgeStyle;shape=connector;rounded=1;orthogonalLoop=1;jettySize=auto;html=1;exitX=0.5;exitY=1;exitDx=0;exitDy=0;entryX=0.5;entryY=0;entryDx=0;entryDy=0;strokeColor=default;align=center;verticalAlign=middle;fontFamily=Helvetica;fontSize=11;fontColor=default;labelBackgroundColor=default;endArrow=classic;" parent="1" source="YddtfjUMXEQ7EH6GwOLm-77" target="YddtfjUMXEQ7EH6GwOLm-78" edge="1">
          <mxGeometry relative="1" as="geometry" />
        </mxCell>
        <mxCell id="YddtfjUMXEQ7EH6GwOLm-77" value="&lt;span style=&quot;font-size: 14px;&quot;&gt;summary_frame()&lt;/span&gt;" style="rounded=1;whiteSpace=wrap;html=1;fillColor=#F2A25C;" parent="1" vertex="1">
          <mxGeometry x="668" y="600.25" width="180" height="30" as="geometry" />
        </mxCell>
        <mxCell id="YddtfjUMXEQ7EH6GwOLm-78" value="run results" style="rounded=1;whiteSpace=wrap;html=1;fillColor=#D3F1E2;" parent="1" vertex="1">
          <mxGeometry x="692" y="660.25" width="135" height="30" as="geometry" />
        </mxCell>
        <mxCell id="YddtfjUMXEQ7EH6GwOLm-84" value="&lt;font style=&quot;font-size: 18px;&quot;&gt;Analyse results&lt;/font&gt;" style="text;html=1;align=center;verticalAlign=middle;whiteSpace=wrap;rounded=1;fontStyle=1;" parent="1" vertex="1">
          <mxGeometry x="663" y="390.25" width="190" height="31" as="geometry" />
        </mxCell>
        <mxCell id="YddtfjUMXEQ7EH6GwOLm-88" value="" style="curved=1;endArrow=classic;html=1;rounded=1;dashed=1;" parent="1" edge="1">
          <mxGeometry width="50" height="50" relative="1" as="geometry">
            <mxPoint x="661.5" y="270" as="sourcePoint" />
            <mxPoint x="662" y="440" as="targetPoint" />
            <Array as="points">
              <mxPoint x="620" y="300" />
              <mxPoint x="590" y="400" />
            </Array>
          </mxGeometry>
        </mxCell>
        <mxCell id="6y7WzxSsARQUCHMQZpNs-1" value="&lt;font style=&quot;font-size: 14px;&quot;&gt;revision_knee_dist&lt;/font&gt;" style="rounded=1;whiteSpace=wrap;html=1;fillColor=#A9E4F5;" vertex="1" parent="1">
          <mxGeometry x="-20" y="69.25999999999999" width="126" height="30" as="geometry" />
        </mxCell>
        <mxCell id="6y7WzxSsARQUCHMQZpNs-2" value="&lt;font style=&quot;font-size: 14px;&quot;&gt;revision_knee_dist&lt;/font&gt;" style="rounded=1;whiteSpace=wrap;html=1;fillColor=#A9E4F5;" vertex="1" parent="1">
          <mxGeometry x="-20" y="109.13" width="126" height="30" as="geometry" />
        </mxCell>
        <mxCell id="6y7WzxSsARQUCHMQZpNs-5" style="edgeStyle=orthogonalEdgeStyle;rounded=1;orthogonalLoop=1;jettySize=auto;html=1;exitX=1;exitY=0.5;exitDx=0;exitDy=0;entryX=1;entryY=0.5;entryDx=0;entryDy=0;" edge="1" parent="1" source="6y7WzxSsARQUCHMQZpNs-10" target="6y7WzxSsARQUCHMQZpNs-11">
          <mxGeometry relative="1" as="geometry" />
        </mxCell>
        <mxCell id="6y7WzxSsARQUCHMQZpNs-6" style="edgeStyle=orthogonalEdgeStyle;rounded=1;orthogonalLoop=1;jettySize=auto;html=1;exitX=1;exitY=0.5;exitDx=0;exitDy=0;entryX=1;entryY=0.5;entryDx=0;entryDy=0;" edge="1" parent="1" source="6y7WzxSsARQUCHMQZpNs-10" target="6y7WzxSsARQUCHMQZpNs-12">
          <mxGeometry relative="1" as="geometry" />
        </mxCell>
        <mxCell id="6y7WzxSsARQUCHMQZpNs-7" style="edgeStyle=orthogonalEdgeStyle;shape=connector;rounded=1;orthogonalLoop=1;jettySize=auto;html=1;exitX=1;exitY=0.5;exitDx=0;exitDy=0;entryX=1;entryY=0.5;entryDx=0;entryDy=0;strokeColor=default;align=center;verticalAlign=middle;fontFamily=Helvetica;fontSize=11;fontColor=default;labelBackgroundColor=default;endArrow=classic;" edge="1" parent="1" source="6y7WzxSsARQUCHMQZpNs-10" target="6y7WzxSsARQUCHMQZpNs-13">
          <mxGeometry relative="1" as="geometry" />
        </mxCell>
        <mxCell id="6y7WzxSsARQUCHMQZpNs-8" style="edgeStyle=orthogonalEdgeStyle;rounded=1;orthogonalLoop=1;jettySize=auto;html=1;exitX=1;exitY=0.5;exitDx=0;exitDy=0;entryX=1;entryY=0.5;entryDx=0;entryDy=0;" edge="1" parent="1" source="6y7WzxSsARQUCHMQZpNs-10" target="6y7WzxSsARQUCHMQZpNs-14">
          <mxGeometry relative="1" as="geometry" />
        </mxCell>
        <mxCell id="6y7WzxSsARQUCHMQZpNs-9" style="edgeStyle=orthogonalEdgeStyle;rounded=1;orthogonalLoop=1;jettySize=auto;html=1;exitX=1;exitY=0.5;exitDx=0;exitDy=0;entryX=1;entryY=0.5;entryDx=0;entryDy=0;" edge="1" parent="1" source="6y7WzxSsARQUCHMQZpNs-10" target="6y7WzxSsARQUCHMQZpNs-15">
          <mxGeometry relative="1" as="geometry" />
        </mxCell>
        <mxCell id="6y7WzxSsARQUCHMQZpNs-10" value="&lt;font style=&quot;font-size: 18px;&quot;&gt;Empirical&lt;/font&gt;" style="rounded=1;whiteSpace=wrap;html=1;fillColor=#68A9D4;" vertex="1" parent="1">
          <mxGeometry x="156" y="-107.87" width="120" height="40" as="geometry" />
        </mxCell>
        <mxCell id="6y7WzxSsARQUCHMQZpNs-11" value="&lt;font style=&quot;font-size: 14px;&quot;&gt;primary_hip_dist_emp&lt;/font&gt;" style="rounded=1;whiteSpace=wrap;html=1;fillColor=#A9E4F5;" vertex="1" parent="1">
          <mxGeometry x="181.25" y="-51.87" width="156" height="30" as="geometry" />
        </mxCell>
        <mxCell id="6y7WzxSsARQUCHMQZpNs-12" value="&lt;font style=&quot;font-size: 14px;&quot;&gt;primary_knee_dist_emp&lt;/font&gt;" style="rounded=1;whiteSpace=wrap;html=1;fillColor=#A9E4F5;" vertex="1" parent="1">
          <mxGeometry x="181.25" y="-11.87" width="156" height="30" as="geometry" />
        </mxCell>
        <mxCell id="6y7WzxSsARQUCHMQZpNs-13" value="&lt;font style=&quot;font-size: 14px;&quot;&gt;revision_hip_dist_emp&lt;/font&gt;" style="rounded=1;whiteSpace=wrap;html=1;fillColor=#A9E4F5;" vertex="1" parent="1">
          <mxGeometry x="181.25" y="28.130000000000003" width="156" height="30" as="geometry" />
        </mxCell>
        <mxCell id="6y7WzxSsARQUCHMQZpNs-14" value="&lt;font style=&quot;font-size: 14px;&quot;&gt;revision_knee_dist_emp&lt;/font&gt;" style="rounded=1;whiteSpace=wrap;html=1;fillColor=#A9E4F5;" vertex="1" parent="1">
          <mxGeometry x="181.25" y="69.25999999999999" width="156" height="30" as="geometry" />
        </mxCell>
        <mxCell id="6y7WzxSsARQUCHMQZpNs-15" value="&lt;font style=&quot;font-size: 14px;&quot;&gt;revision_knee_dist_emp&lt;/font&gt;" style="rounded=1;whiteSpace=wrap;html=1;fillColor=#A9E4F5;" vertex="1" parent="1">
          <mxGeometry x="181.25" y="109.13" width="156" height="30" as="geometry" />
        </mxCell>
        <mxCell id="6y7WzxSsARQUCHMQZpNs-16" value="&lt;span style=&quot;font-size: 14px;&quot;&gt;revision_types()&lt;/span&gt;" style="rounded=1;whiteSpace=wrap;html=1;fillColor=#F2A25C;" vertex="1" parent="1">
          <mxGeometry x="-252.5" y="73" width="150" height="30" as="geometry" />
        </mxCell>
        <mxCell id="6y7WzxSsARQUCHMQZpNs-17" value="&lt;span style=&quot;font-size: 14px;&quot;&gt;label_types()&lt;/span&gt;" style="rounded=1;whiteSpace=wrap;html=1;fillColor=#F2A25C;" vertex="1" parent="1">
          <mxGeometry x="-252.5" y="111.13" width="150" height="30" as="geometry" />
        </mxCell>
        <mxCell id="6y7WzxSsARQUCHMQZpNs-30" style="edgeStyle=orthogonalEdgeStyle;shape=connector;curved=0;rounded=1;orthogonalLoop=1;jettySize=auto;html=1;exitX=0.5;exitY=1;exitDx=0;exitDy=0;entryX=0.5;entryY=0;entryDx=0;entryDy=0;strokeColor=default;align=center;verticalAlign=middle;fontFamily=Helvetica;fontSize=11;fontColor=default;labelBackgroundColor=default;endArrow=classic;" edge="1" parent="1" source="6y7WzxSsARQUCHMQZpNs-21" target="6y7WzxSsARQUCHMQZpNs-29">
          <mxGeometry relative="1" as="geometry" />
        </mxCell>
        <mxCell id="6y7WzxSsARQUCHMQZpNs-21" value="&lt;font style=&quot;font-size: 18px;&quot;&gt;Schedule&lt;/font&gt;" style="rounded=1;whiteSpace=wrap;html=1;fillColor=#68A9D4;" vertex="1" parent="1">
          <mxGeometry x="-593" y="-240.00000000000003" width="113" height="40" as="geometry" />
        </mxCell>
        <mxCell id="6y7WzxSsARQUCHMQZpNs-22" value="&lt;font style=&quot;font-size: 18px;&quot;&gt;Hospital&lt;/font&gt;" style="rounded=1;whiteSpace=wrap;html=1;fillColor=#68A9D4;" vertex="1" parent="1">
          <mxGeometry x="-300" y="205" width="113" height="40" as="geometry" />
        </mxCell>
        <mxCell id="6y7WzxSsARQUCHMQZpNs-23" style="edgeStyle=orthogonalEdgeStyle;shape=connector;rounded=1;orthogonalLoop=1;jettySize=auto;html=1;exitX=0.5;exitY=1;exitDx=0;exitDy=0;entryX=0.5;entryY=0;entryDx=0;entryDy=0;strokeColor=default;align=center;verticalAlign=middle;fontFamily=Helvetica;fontSize=11;fontColor=default;labelBackgroundColor=default;endArrow=classic;" edge="1" parent="1" target="6y7WzxSsARQUCHMQZpNs-24" source="6y7WzxSsARQUCHMQZpNs-22">
          <mxGeometry relative="1" as="geometry">
            <mxPoint x="-96.5" y="230" as="sourcePoint" />
          </mxGeometry>
        </mxCell>
        <mxCell id="6y7WzxSsARQUCHMQZpNs-26" style="edgeStyle=orthogonalEdgeStyle;shape=connector;curved=0;rounded=1;orthogonalLoop=1;jettySize=auto;html=1;exitX=0.5;exitY=1;exitDx=0;exitDy=0;strokeColor=default;align=center;verticalAlign=middle;fontFamily=Helvetica;fontSize=11;fontColor=default;labelBackgroundColor=default;endArrow=classic;" edge="1" parent="1" source="6y7WzxSsARQUCHMQZpNs-24" target="6y7WzxSsARQUCHMQZpNs-25">
          <mxGeometry relative="1" as="geometry" />
        </mxCell>
        <mxCell id="6y7WzxSsARQUCHMQZpNs-24" value="&lt;font style=&quot;font-size: 14px;&quot;&gt;model&lt;/font&gt;" style="rounded=1;whiteSpace=wrap;html=1;fillColor=#A9E4F5;" vertex="1" parent="1">
          <mxGeometry x="-276.5" y="280.51" width="66" height="30" as="geometry" />
        </mxCell>
        <mxCell id="6y7WzxSsARQUCHMQZpNs-46" style="edgeStyle=orthogonalEdgeStyle;shape=connector;curved=0;rounded=1;orthogonalLoop=1;jettySize=auto;html=1;exitX=0.5;exitY=1;exitDx=0;exitDy=0;strokeColor=default;align=center;verticalAlign=middle;fontFamily=Helvetica;fontSize=11;fontColor=default;labelBackgroundColor=default;endArrow=classic;" edge="1" parent="1" source="6y7WzxSsARQUCHMQZpNs-25" target="ltitkqDnKHNBnyyiyaz9-10">
          <mxGeometry relative="1" as="geometry" />
        </mxCell>
        <mxCell id="6y7WzxSsARQUCHMQZpNs-59" style="edgeStyle=orthogonalEdgeStyle;shape=connector;curved=0;rounded=1;orthogonalLoop=1;jettySize=auto;html=1;exitX=0.5;exitY=1;exitDx=0;exitDy=0;strokeColor=default;align=center;verticalAlign=middle;fontFamily=Helvetica;fontSize=11;fontColor=default;labelBackgroundColor=default;endArrow=classic;" edge="1" parent="1" source="6y7WzxSsARQUCHMQZpNs-25" target="6y7WzxSsARQUCHMQZpNs-47">
          <mxGeometry relative="1" as="geometry" />
        </mxCell>
        <mxCell id="6y7WzxSsARQUCHMQZpNs-25" value="&lt;font style=&quot;font-size: 14px;&quot;&gt;run()&lt;/font&gt;" style="rounded=1;whiteSpace=wrap;html=1;fillColor=#F2A25C;" vertex="1" parent="1">
          <mxGeometry x="-187" y="350" width="66" height="30" as="geometry" />
        </mxCell>
        <mxCell id="6y7WzxSsARQUCHMQZpNs-28" value="" style="curved=1;endArrow=classic;html=1;rounded=1;dashed=1;exitX=0.859;exitY=0.446;exitDx=0;exitDy=0;exitPerimeter=0;" edge="1" parent="1">
          <mxGeometry width="50" height="50" relative="1" as="geometry">
            <mxPoint x="-91" y="-32" as="sourcePoint" />
            <mxPoint x="-40" y="-130" as="targetPoint" />
            <Array as="points">
              <mxPoint x="-60" y="-80" />
              <mxPoint x="-110" y="-110" />
              <mxPoint x="-80" y="-150" />
            </Array>
          </mxGeometry>
        </mxCell>
        <mxCell id="6y7WzxSsARQUCHMQZpNs-29" value="&lt;font style=&quot;font-size: 14px;&quot;&gt;schedule&lt;/font&gt;" style="rounded=1;whiteSpace=wrap;html=1;fillColor=#A9E4F5;" vertex="1" parent="1">
          <mxGeometry x="-569.5" y="-91.37" width="66" height="30" as="geometry" />
        </mxCell>
        <mxCell id="6y7WzxSsARQUCHMQZpNs-32" style="edgeStyle=orthogonalEdgeStyle;shape=connector;curved=0;rounded=1;orthogonalLoop=1;jettySize=auto;html=1;exitX=0.5;exitY=1;exitDx=0;exitDy=0;entryX=0.332;entryY=-0.025;entryDx=0;entryDy=0;entryPerimeter=0;strokeColor=default;align=center;verticalAlign=middle;fontFamily=Helvetica;fontSize=11;fontColor=default;labelBackgroundColor=default;endArrow=classic;" edge="1" parent="1" source="6y7WzxSsARQUCHMQZpNs-29" target="vqxNZKrtE7Uk3ozEDKWz-3">
          <mxGeometry relative="1" as="geometry" />
        </mxCell>
        <mxCell id="6y7WzxSsARQUCHMQZpNs-34" style="edgeStyle=orthogonalEdgeStyle;shape=connector;rounded=1;orthogonalLoop=1;jettySize=auto;html=1;exitX=1;exitY=0.5;exitDx=0;exitDy=0;entryX=0;entryY=0.5;entryDx=0;entryDy=0;strokeColor=default;align=center;verticalAlign=middle;fontFamily=Helvetica;fontSize=11;fontColor=default;labelBackgroundColor=default;endArrow=classic;" edge="1" parent="1" target="6y7WzxSsARQUCHMQZpNs-40">
          <mxGeometry relative="1" as="geometry">
            <mxPoint x="-480" y="-221" as="sourcePoint" />
          </mxGeometry>
        </mxCell>
        <mxCell id="6y7WzxSsARQUCHMQZpNs-35" style="edgeStyle=orthogonalEdgeStyle;shape=connector;rounded=1;orthogonalLoop=1;jettySize=auto;html=1;exitX=1;exitY=0.5;exitDx=0;exitDy=0;entryX=0;entryY=0.5;entryDx=0;entryDy=0;strokeColor=default;align=center;verticalAlign=middle;fontFamily=Helvetica;fontSize=11;fontColor=default;labelBackgroundColor=default;endArrow=classic;" edge="1" parent="1" target="6y7WzxSsARQUCHMQZpNs-42">
          <mxGeometry relative="1" as="geometry">
            <mxPoint x="-480" y="-221" as="sourcePoint" />
          </mxGeometry>
        </mxCell>
        <mxCell id="6y7WzxSsARQUCHMQZpNs-36" style="edgeStyle=orthogonalEdgeStyle;rounded=1;orthogonalLoop=1;jettySize=auto;html=1;exitX=1;exitY=0.5;exitDx=0;exitDy=0;entryX=0;entryY=0.5;entryDx=0;entryDy=0;curved=0;" edge="1" parent="1" target="6y7WzxSsARQUCHMQZpNs-41">
          <mxGeometry relative="1" as="geometry">
            <mxPoint x="-480" y="-221" as="sourcePoint" />
          </mxGeometry>
        </mxCell>
        <mxCell id="6y7WzxSsARQUCHMQZpNs-37" style="edgeStyle=orthogonalEdgeStyle;rounded=1;orthogonalLoop=1;jettySize=auto;html=1;exitX=1;exitY=0.5;exitDx=0;exitDy=0;entryX=0;entryY=0.5;entryDx=0;entryDy=0;curved=0;" edge="1" parent="1" target="6y7WzxSsARQUCHMQZpNs-43">
          <mxGeometry relative="1" as="geometry">
            <mxPoint x="-480" y="-221" as="sourcePoint" />
          </mxGeometry>
        </mxCell>
        <mxCell id="6y7WzxSsARQUCHMQZpNs-40" value="&lt;span style=&quot;font-size: 14px;&quot;&gt;daily_counts()&lt;/span&gt;" style="rounded=1;whiteSpace=wrap;html=1;fillColor=#F2A25C;" vertex="1" parent="1">
          <mxGeometry x="-389.5" y="-249.5" width="150" height="30" as="geometry" />
        </mxCell>
        <mxCell id="6y7WzxSsARQUCHMQZpNs-41" value="&lt;span style=&quot;font-size: 14px;&quot;&gt;create_schedule()&lt;/span&gt;" style="rounded=1;whiteSpace=wrap;html=1;fillColor=#F2A25C;" vertex="1" parent="1">
          <mxGeometry x="-389.5" y="-289.5" width="150" height="30" as="geometry" />
        </mxCell>
        <mxCell id="6y7WzxSsARQUCHMQZpNs-42" value="&lt;span style=&quot;font-size: 14px;&quot;&gt;week_schedule()&lt;/span&gt;" style="rounded=1;whiteSpace=wrap;html=1;fillColor=#F2A25C;" vertex="1" parent="1">
          <mxGeometry x="-389.5" y="-209.5" width="150" height="30" as="geometry" />
        </mxCell>
        <mxCell id="6y7WzxSsARQUCHMQZpNs-43" value="&lt;span style=&quot;font-size: 14px;&quot;&gt;theatre_capacity()&lt;/span&gt;" style="rounded=1;whiteSpace=wrap;html=1;fillColor=#F2A25C;" vertex="1" parent="1">
          <mxGeometry x="-389.5" y="-171" width="150" height="30" as="geometry" />
        </mxCell>
        <mxCell id="6y7WzxSsARQUCHMQZpNs-45" value="&lt;span style=&quot;font-size: 14px;&quot;&gt;patient_arrivals_generator_revision()&lt;/span&gt;" style="rounded=1;whiteSpace=wrap;html=1;fillColor=#F2A25C;" vertex="1" parent="1">
          <mxGeometry x="-276.5" y="530" width="246.5" height="30" as="geometry" />
        </mxCell>
        <mxCell id="6y7WzxSsARQUCHMQZpNs-47" value="&lt;span style=&quot;font-size: 14px;&quot;&gt;perform_audit()&lt;/span&gt;" style="rounded=1;whiteSpace=wrap;html=1;fillColor=#F2A25C;" vertex="1" parent="1">
          <mxGeometry x="42.5" y="490" width="130" height="30" as="geometry" />
        </mxCell>
        <mxCell id="6y7WzxSsARQUCHMQZpNs-48" value="&lt;span style=&quot;font-size: 14px;&quot;&gt;audit_frame()&lt;/span&gt;" style="rounded=1;whiteSpace=wrap;html=1;fillColor=#F2A25C;" vertex="1" parent="1">
          <mxGeometry x="42.5" y="580" width="130" height="30" as="geometry" />
        </mxCell>
        <mxCell id="6y7WzxSsARQUCHMQZpNs-50" value="&lt;span style=&quot;font-size: 14px;&quot;&gt;patient_results()&lt;/span&gt;" style="rounded=1;whiteSpace=wrap;html=1;fillColor=#F2A25C;" vertex="1" parent="1">
          <mxGeometry x="462.5" y="555.38" width="130" height="30" as="geometry" />
        </mxCell>
        <mxCell id="6y7WzxSsARQUCHMQZpNs-52" style="edgeStyle=orthogonalEdgeStyle;shape=connector;curved=0;rounded=1;orthogonalLoop=1;jettySize=auto;html=1;exitX=0.5;exitY=1;exitDx=0;exitDy=0;entryX=0.5;entryY=0;entryDx=0;entryDy=0;strokeColor=default;align=center;verticalAlign=middle;fontFamily=Helvetica;fontSize=11;fontColor=default;labelBackgroundColor=default;endArrow=classic;" edge="1" parent="1" source="6y7WzxSsARQUCHMQZpNs-51" target="ltitkqDnKHNBnyyiyaz9-13">
          <mxGeometry relative="1" as="geometry">
            <Array as="points">
              <mxPoint x="-381" y="710" />
              <mxPoint x="-203" y="710" />
            </Array>
          </mxGeometry>
        </mxCell>
        <mxCell id="6y7WzxSsARQUCHMQZpNs-51" value="&lt;font style=&quot;font-size: 14px;&quot;&gt;new_revision_patient&lt;/font&gt;" style="rounded=1;whiteSpace=wrap;html=1;fillColor=#A9E4F5;" vertex="1" parent="1">
          <mxGeometry x="-450" y="615.5" width="137.5" height="30" as="geometry" />
        </mxCell>
        <mxCell id="6y7WzxSsARQUCHMQZpNs-55" value="Process dataframe containing results per patient per day per run" style="text;html=1;align=center;verticalAlign=middle;whiteSpace=wrap;rounded=1;" vertex="1" parent="1">
          <mxGeometry x="461.5" y="601.63" width="130" height="20" as="geometry" />
        </mxCell>
        <mxCell id="6y7WzxSsARQUCHMQZpNs-57" value="patient-level results" style="rounded=1;whiteSpace=wrap;html=1;fillColor=#D3F1E2;" vertex="1" parent="1">
          <mxGeometry x="460" y="645.13" width="135" height="30" as="geometry" />
        </mxCell>
        <mxCell id="6y7WzxSsARQUCHMQZpNs-58" value="interval audit results" style="rounded=1;whiteSpace=wrap;html=1;fillColor=#D3F1E2;" vertex="1" parent="1">
          <mxGeometry x="40" y="630.5" width="135" height="30" as="geometry" />
        </mxCell>
        <mxCell id="6y7WzxSsARQUCHMQZpNs-61" value="" style="curved=1;endArrow=classic;html=1;rounded=1;dashed=1;" edge="1" parent="1">
          <mxGeometry width="50" height="50" relative="1" as="geometry">
            <mxPoint x="653" y="249.00180851063854" as="sourcePoint" />
            <mxPoint x="520" y="540" as="targetPoint" />
            <Array as="points">
              <mxPoint x="595" y="264.27" />
              <mxPoint x="590" y="430" />
            </Array>
          </mxGeometry>
        </mxCell>
        <mxCell id="6y7WzxSsARQUCHMQZpNs-65" value="Process at end of run" style="text;html=1;align=center;verticalAlign=middle;whiteSpace=wrap;rounded=1;" vertex="1" parent="1">
          <mxGeometry x="41" y="610.5" width="130" height="20" as="geometry" />
        </mxCell>
        <mxCell id="6y7WzxSsARQUCHMQZpNs-66" value="Print updates to console" style="text;html=1;align=center;verticalAlign=middle;whiteSpace=wrap;rounded=1;" vertex="1" parent="1">
          <mxGeometry x="202" y="466.25" width="180" height="21.75" as="geometry" />
        </mxCell>
      </root>
    </mxGraphModel>
  </diagram>
</mxfile>
